<svg width="20" height="17" viewBox="0 0 20 17" fill="none" xmlns="http://www.w3.org/2000/svg">
<path d="M12.4414 2.65882C12.6495 3.54101 13.4417 4.1982 14.3877 4.1982C15.492 4.1982 16.3873 3.30288 16.3873 2.19851C16.3873 1.09413 15.492 0.198822 14.3877 0.198822C13.422 0.198822 12.6167 0.883197 12.4292 1.79351C10.812 1.96695 9.54922 3.33851 9.54922 5.0007C9.54922 5.00445 9.54922 5.00726 9.54922 5.01101C7.79047 5.08507 6.18453 5.5857 4.90953 6.37601C4.43609 6.00945 3.84172 5.79101 3.19672 5.79101C1.64891 5.79101 0.394531 7.04539 0.394531 8.5932C0.394531 9.71632 1.05453 10.6838 2.00797 11.131C2.10078 14.3841 5.64547 17.0007 10.0058 17.0007C14.3661 17.0007 17.9155 14.3813 18.0036 11.1254C18.9495 10.6754 19.6039 9.7107 19.6039 8.59414C19.6039 7.04632 18.3495 5.79195 16.8017 5.79195C16.1595 5.79195 15.568 6.00851 15.0955 6.37226C13.8092 5.57632 12.1855 5.0757 10.4089 5.00914C10.4089 5.00632 10.4089 5.00445 10.4089 5.00164C10.4089 3.81101 11.2939 2.82289 12.4414 2.6607V2.65882ZM4.79703 10.3716C4.84391 9.35539 5.51891 8.57539 6.30359 8.57539C7.08828 8.57539 7.68828 9.39945 7.64141 10.4157C7.59453 11.4319 7.00859 11.8013 6.22297 11.8013C5.43734 11.8013 4.75016 11.3879 4.79703 10.3716ZM13.7089 8.57539C14.4945 8.57539 15.1695 9.35539 15.2155 10.3716C15.2623 11.3879 14.5742 11.8013 13.7895 11.8013C13.0048 11.8013 12.418 11.4329 12.3711 10.4157C12.3242 9.39945 12.9233 8.57539 13.7089 8.57539ZM12.7752 12.7229C12.9223 12.7379 13.0161 12.8907 12.9589 13.0276C12.4761 14.1816 11.3361 14.9926 10.0058 14.9926C8.67547 14.9926 7.53641 14.1816 7.05266 13.0276C6.99547 12.8907 7.08922 12.7379 7.23641 12.7229C8.09891 12.6357 9.03172 12.5879 10.0058 12.5879C10.9798 12.5879 11.9117 12.6357 12.7752 12.7229Z" fill="#15AA7A"/>
</svg>
